<svg xmlns="http://www.w3.org/2000/svg" width="20" height="20" viewBox="0 0 20 20">
  <defs>
    <style>
      .cls-1 {
        fill: #ffffff;
        fill-rule: evenodd;
      }
    </style>
  </defs>
  <path class="cls-1" d="M9.99,0l3.83,3.82V3.84L12.73,4.92,10,2.2,7.27,4.92,6.18,3.84V3.81Zm4.42,3.84a0.7,0.7,0,0,1,.23.21l0.71,0.7L11.23,8.88,10.3,7.96Zm-8.84.01a2.34,2.34,0,0,1,.5.48L7.26,5.52,11.75,10,5.6,16.16H5.57l-0.91-.91L9.9,10.01,4.67,4.78V4.75ZM4.63,5.36a1.117,1.117,0,0,1,.33.31L5.74,6.45,2.2,10l3.55,3.55-1.1,1.1L0,10Zm10.71,0a1.334,1.334,0,0,1,.38.36l0.91,0.91L20,10l-4.62,4.63a0.923,0.923,0,0,1-.32-0.29l-0.8-.79L17.8,10,14.26,6.44Zm-4.11,5.76,4.11,4.11v0.02l-0.91.9H14.41l-4.1-4.1Zm1.5,3.95,1.1,1.1L10,20,6.18,16.18l1.09-1.1L10,17.8Z"/>
</svg>
