<svg xmlns="http://www.w3.org/2000/svg" width="22.69" height="25.594"><path d="M22.68 23.327a12.112 12.112 0 00-.96-4.589 11.635 11.635 0 00-6.6-6.374 7.048 7.048 0 001.15-10.083 6.406 6.406 0 00-9.12-.736 6.525 6.525 0 00-2.31 4.453 6.943 6.943 0 002.75 6.359 11.718 11.718 0 00-5.5 4.327 12.014 12.014 0 00-2.08 6.643v1.026a1.217 1.217 0 001.19 1.233h20.06a1.452 1.452 0 001.42-1.476v-.783zM6.57 6.787a4.773 4.773 0 114.77 4.931 4.843 4.843 0 01-4.77-4.931zM4.29 16.804a9.176 9.176 0 016.19-3.192 8.932 8.932 0 016.15 1.622 9.953 9.953 0 014.29 8.093H1.78a10 10 0 012.51-6.523z" fill-rule="evenodd"/></svg>