<svg xmlns="http://www.w3.org/2000/svg" width="26" height="25"><path data-name="Cart Icon" d="M20.04 18.422h-9.55m-1.12-.024c-.45 0-.76.009-1.08 0a2.246 2.246 0 01-2.06-1.526 2.213 2.213 0 01.79-2.593.669.669 0 00.31-.855C6.45 9.497 5.59 5.566 4.72 1.56H2.3c-.51 0-1.01.024-1.51-.011A.752.752 0 010 .778.721.721 0 01.78.012c1.49-.019 2.98-.013 4.47 0a.814.814 0 01.84.74c.16.76.34 1.516.52 2.327h18.07c.18 0 .35-.01.52.006a.777.777 0 01.76 1.048c-.99 3.517-2 7.031-3 10.545a.962.962 0 01-1.13.676q-6.465-.013-12.95 0c-.19 0-.39 0-.58.014a.675.675 0 00-.66.685.7.7 0 00.6.8 3.061 3.061 0 00.63.031H22.06a.8.8 0 01.89.78.779.779 0 01-.88.741h-.91m-12.18-4.61c.15.015.23.03.3.03 3.97 0 7.93 0 11.9.012a.518.518 0 00.58-.481c.63-2.284 1.29-4.563 1.93-6.845.18-.611.35-1.222.53-1.865H6.96c.67 3.054 1.34 6.086 2.02 9.145zm11.16 6.2c1.49.7 2.05 1.693 1.81 3.011a2.336 2.336 0 01-2.21 1.987 2.39 2.39 0 01-2.41-1.827c-.34-1.253.19-2.285 1.64-3.149m-8.98 0c1.45.752 1.98 1.741 1.69 3.07a2.356 2.356 0 01-2.34 1.914 2.423 2.423 0 01-2.29-1.91c-.29-1.228.29-2.32 1.77-3.1m.5 3.318a.81.81 0 00.06-1.618.78.78 0 00-.78.853.73.73 0 00.72.765zm11.07-.761a.74.74 0 00-.75-.847.726.726 0 00-.78.769.752.752 0 00.78.836.717.717 0 00.75-.758z" fill-rule="evenodd"/></svg>